<svg xmlns="http://www.w3.org/2000/svg" viewBox="0 0 157.85 221.89"><defs><style>.cls-1{fill:#bb86fc;}</style></defs><title>hero-1</title><g id="Layer_2" data-name="Layer 2"><g id="Layer_7" data-name="Layer 7"><path class="cls-1" d="M59.45,221.89a.9.9,0,0,1-.28,0h0l-.09,0a.94.94,0,0,1-.26-.14L8.4,185.85l-.08,0a.93.93,0,0,1-.26-.33,1.33,1.33,0,0,1-.1-.24H8a1.13,1.13,0,0,1,0-.18V185l-.28-63.67-.12-.63H1a1.05,1.05,0,0,1-.35-.13H.58A1,1,0,0,1,.17,120h0a1.13,1.13,0,0,1-.05-.32h0L0,102.67H0a.62.62,0,0,1,0-.19H0a1.07,1.07,0,0,1,.92-.84h.13l6.34,0,.13-.77v0L7.27,37.14v-.07a1.16,1.16,0,0,1,.12-.45,1.13,1.13,0,0,1,.28-.34.18.18,0,0,1,.07-.05L57.87.35a1.05,1.05,0,0,1,.3-.15h0a1.26,1.26,0,0,1,.33,0h0L68.38,0h33.51l1.72.1h.12l1.69.28.14,0,1.73.52.09,0,1.65.66.12.06,1.6.89.07,0,1.55,1,.11.09L113.89,5l0,0,1.36,1.36.09.1L116.61,8l0,.06,1.13,1.64a.41.41,0,0,1,0,.09l1,1.79,0,.06.89,1.87a1,1,0,0,0,0,.1l.7,2,0,.08.56,2s0,.06,0,.08l.42,2.12s0,.06,0,.09l.23,2.11s0,.05,0,.07l.09,2.15v0h0v0L122,45.88l18.52,16,.11.11a1,1,0,0,1,.2.32,1,1,0,0,1,.06.18,1.22,1.22,0,0,1,0,.33c0,.05,0,.09,0,.14l-2.67,13,1,.13.14,0,1.45.37.08,0,1.5.52a.76.76,0,0,1,.16.06l1.41.75.09.06,1.41.94.09.06L146.9,80l.06.06,1.31,1.26.08.09,1.22,1.45a.21.21,0,0,1,0,.06l1.18,1.59,0,.07,1.08,1.74,0,0,1,1.87a.25.25,0,0,1,0,.07l.94,2,0,0,.84,2.11a.14.14,0,0,1,0,.06l.75,2.2,0,.08.61,2.34.57,2.37s0,0,0,.07l.42,2.49v0l.33,2.48v.07l.19,2.53v0l.1,2.53v2.68l-.14,2.54v0l-.23,2.53v0l-.32,2.49s0,0,0,.06l-.46,2.44a.64.64,0,0,1,0,.07L156,125l-.66,2.32a.14.14,0,0,0,0,.06l-.75,2.16,0,.06-.89,2.11,0,.05-.94,2a.59.59,0,0,1,0,.08l-1.08,1.83,0,0-1.13,1.69,0,.06L149.23,139l-.07.08-1.27,1.36,0,.06-1.32,1.22-.06.05-1.36,1.08L145,143l-1.41.85-.08,0-1.46.71-.11,0-1.45.52-.16,0-1.51.28-.12,0h-.12l2.7,12.4s0,.09,0,.13a1,1,0,0,1,0,.35,1.21,1.21,0,0,1,0,.18,1,1,0,0,1-.21.32l-.1.1-18.43,16.29.1,22.1v0l0,2.1a.28.28,0,0,1,0,.09l-.23,2.16s0,.05,0,.08l-.38,2.11a.36.36,0,0,1,0,.1l-.56,2,0,.07-.7,2,0,.08L119.7,210l0,.06-.94,1.78-.06.11-1.13,1.64,0,.06-1.22,1.55-.09.09-1.36,1.36,0,.06L113.37,218l-.1.07-1.5,1-.08.06-1.6.89-.11,0-1.69.71-.13,0-1.69.47-.08,0-1.69.33-.15,0-1.46.07-.18,0-10,.09h-.15l-33.34,0ZM12.35,186l47.44,33.71,6.22-.08L18.58,185.91Zm59.88,33.58h30.5l1.63-.09,1.57-.31,1.59-.44,1.57-.65,1.49-.84,1.41-1,1.34-1.15,1.28-1.29,1.16-1.47,1.07-1.56.89-1.69.82-1.81.67-1.89.54-1.94.36-2,.23-2.07,0-2-.08-20.19L111.42,185a1.25,1.25,0,0,1-.22.16h0a1.16,1.16,0,0,1-.45.12,1,1,0,0,1-.48-.08.76.76,0,0,1-.23-.13l-3.12-2.22-8,7,.26,1.19.12-.1a.66.66,0,0,1,.17-.12l.79-.47a.94.94,0,0,1,.23-.1l.89-.28a.8.8,0,0,1,.21,0l.89-.09h.23l.89.09a.79.79,0,0,1,.22,0l.89.28a.88.88,0,0,1,.22.1l.8.47a.61.61,0,0,1,.16.12l.75.65.13.13.65.8a.76.76,0,0,1,.11.14l.51.89a1.42,1.42,0,0,1,.08.18l.38,1s0,.09,0,.14l.23,1.08a.68.68,0,0,1,0,.14l.1,1.13v.13l0,1.13a1.1,1.1,0,0,1,0,.18l-.23,1.08c0,.05,0,.11,0,.16l-.38,1a.35.35,0,0,1-.06.14l-.52.94a1.63,1.63,0,0,1-.11.17l-.66.79a.75.75,0,0,1-.15.16l-.75.61-.13.09-.8.47-.18.08-.89.33a1.1,1.1,0,0,1-.26.06l-.89.09a.89.89,0,0,1-.23,0l-.89-.09a1.1,1.1,0,0,1-.26-.06l-.89-.33-.18-.08-.8-.47-.13-.09-.75-.61-.16-.16-.65-.79a1.77,1.77,0,0,1-.12-.17l-.51-.94a.35.35,0,0,1-.06-.14l-.38-1,0-.11a1.07,1.07,0,0,1-.14-.5l-.15-.58a1,1,0,0,1,0-.23v-.28ZM20.66,184.73l48.62,34.55,27.64-24.39.11-.09.09-.08L48.5,160.16ZM102,202.61l.64.07.65-.07.67-.24.64-.38.61-.49.52-.64.43-.78.32-.84.2-.91,0-1-.08-1-.21-.94-.32-.87-.42-.73-.54-.66-.61-.53-.6-.36-.67-.21-.67-.07-.67.07-.67.21-.6.36-.61.53-.32.39.17.8,0,.15a1.13,1.13,0,0,1,0,.32.6.6,0,0,1-.06.19.83.83,0,0,1-.2.32l-.1.11-.68.59v0a.59.59,0,0,1,0,.13l.1,1.13v.18l-.1,1.13a.45.45,0,0,1,0,.11l-.08.44h0l.33.86.43.78.52.64.61.49.64.38ZM49.4,158.14l47.8,34-.43-2L49,156.18Zm-.35-4.57,48.62,34.51,7.43-6.51L59.64,149.26l-.12-.09a1.63,1.63,0,0,1-.17-.2h0a.63.63,0,0,1-.07-.12,1.25,1.25,0,0,1-.1-.27l-.72-3.34ZM9.86,129.37l.24,54.49,7.72-.11-.08-22.34v0l0-1.82a.19.19,0,0,1,0-.08l.19-1.83v-.06l.28-1.83s0-.06,0-.09l.42-1.74a.14.14,0,0,0,0-.06l.52-1.65,0-.08.61-1.5,0-.08.71-1.41a.41.41,0,0,1,.05-.09l.8-1.27.07-.09.89-1.13.08-.09.94-.94.11-.1.4-.3-1-.33-.12,0-1.45-.66-.1,0-1.46-.85-.11-.07-1.36-1-.06-.06L17,140.87l-.07-.07-1.27-1.36-.05-.07-1.22-1.55,0-.06-1.12-1.64,0-.06-1.08-1.83,0-.06-1-1.92,0-.07-.89-2.06a.14.14,0,0,1,0-.06ZM62,148.27l48.61,34.55,9.93-8.77a.94.94,0,0,1,.28-.24l17.63-15.6L89.84,123.66ZM30.73,161.88l-8.66,18.7,25.16-22.19-1-4.47s0-.09,0-.14a.92.92,0,0,1,0-.33,1.33,1.33,0,0,1,0-.19,1.15,1.15,0,0,1,.21-.33l.1-.09,9.8-8.67-.08,0,0,0-1.65.61-.1,0-1.59.42-.11,0-1.5.23h-.1l-1.35.1H46.31l-.86.23-1.11.46-1.18.61-1.22.82-1.24.89-1.25,1.06L38.22,151,37,152.27l-1.18,1.46-1.15,1.51-1.09,1.6-1,1.64-.93,1.71-.87,1.69Zm-10.82.61L20,179.93l8.07-17.44Zm0-2.17h9.15l.59-1.15.95-1.75,0,0,1-1.69,0-.05L32.85,154l0,0,1.17-1.55,0,0,1.22-1.5.06-.07,1.32-1.36L38,148.16l.06-.06L39.32,147a.21.21,0,0,1,.08-.06l1.31-.94.49-.33H27.63l-.95.33-.88.48-.87.66-.84.84-.81,1-.74,1.17-.66,1.33-.58,1.42-.49,1.56-.41,1.66-.27,1.76L20,159.65Zm70.79-38.69,47.81,34-4.35-20-2.06-.86-5.26-2.25-2.66-1.24L121.57,130,119,128.74l-2.63-1.32-5.18-2.73-2.56-1.42-2.49-1.41-2.5-1.46-2.45-1.46-2.4-1.46-4.63-3L91.92,113,90,111.63h-1.5ZM60.19,143l.73,3.33,27.64-24.43-2.25-10.26h-.23l-.87,1.83,0,0-1.27,2.39a.08.08,0,0,0,0,0l-2.82,4.79,0,0-1.55,2.3-1.61,2.27,0,0-1.64,2.16-1.7,2.13,0,0-1.73,2-1.8,2,0,0-1.78,1.78,0,0-1.83,1.64-1.81,1.53,0,0-1.83,1.41-.05,0-1.78,1.22-.06,0-1.78,1.08h0a1.31,1.31,0,0,1,.19.27A1.22,1.22,0,0,1,60.19,143Zm-14,.49h3.55l1.28-.09,1.4-.22,1.49-.39,1.56-.59,1.67-.72,1.67-.9,1.73-1,1.74-1.19L64.07,137l1.77-1.49,1.78-1.6,1.75-1.74,1.77-1.91,1.7-1.93,1.67-2.09,1.61-2.13,1.59-2.23,1.51-2.25L82,114.85l1.25-2.35.93-1.94-1-2L82,106.24l-1.39-2.37-1.43-2.3L77.6,99.28,76,97.07l-1.67-2.13-1.66-2-1.76-2-1.75-1.84-1.75-1.71-1.8-1.61-1.79-1.47L62.06,83l-1.77-1.18-1.73-1L56.88,80l-1.67-.72-1.55-.53-1.5-.35-1.45-.22-1,0H34.84l1.24.82.09.07,1.36,1.12.06.06,1.32,1.27.07.08L40.2,83l0,.06,1.17,1.59a.21.21,0,0,0,0,.06l1.12,1.73a.41.41,0,0,1,.05.09l1,1.88s0,0,0,0l.94,2a.17.17,0,0,1,0,0l.85,2.12a.17.17,0,0,0,0,.05l.75,2.2s0,0,0,.06l.66,2.3s0,0,0,.06l.51,2.4v0l.43,2.44v0l.33,2.53v0l.23,2.53v.06l.1,2.54V110l-.05,2.58v0l-.14,2.53v0l-.24,2.54v0l-.33,2.48s0,.05,0,.07l-.47,2.39v0l-.56,2.4a.19.19,0,0,0,0,.07L46,127.43l-.76,2.23,0,.09-.89,2.06,0,0-.93,2,0,.08-1.08,1.83-1.09,1.76-.07.1-1.22,1.55-.06.06-1.27,1.36-.05.06-1.31,1.22-.07.06L35.73,143l-.12.08-.7.43H46.2Zm-19.85,0,1.37,0,1.37-.09,1.37-.3,1.33-.43,1.34-.65,1.31-.78,1.27-1L37,139.05l1.21-1.29,1.16-1.47,1-1.68,1-1.77.91-1.91.87-2,.74-2.16.68-2.19.55-2.33.46-2.34.32-2.44.23-2.49.14-2.49,0-2.53-.09-2.48L46,105l-.32-2.49-.41-2.4-.51-2.33-.64-2.24-.73-2.15-.82-2.06-.92-2-1-1.81-1.08-1.66-1.13-1.55L37.36,83l-1.25-1.2-1.28-1.06-1.32-.88-1.3-.69-1.38-.52-1.31-.34-1.37-.13H26.77l-1.35.17-1.36.39-1.35.56-1.3.7-1.32.92-1.28,1.06-1.2,1.24-1.17,1.39-1.12,1.58-1.05,1.68-1,1.86-.87,1.95-.82,2.11-.69,2.14-.59,2.3-.51,2.35-.36,2.06v0a1.22,1.22,0,0,1-.07.38l-.27,2.4-.18,2.5-.09,2.48,0,2.53L9,115.38l.28,2.48.36,2.4.46,2.39.6,2.31.64,2.19.78,2.14.86,2,1,1.86,1,1.77,1.08,1.59L17.25,138l1.21,1.29,1.24,1.11,1.27,1,1.35.78,1.35.61,1.33.43Zm109.85-8.8,1.89,8.69.38,0,1.35-.26,1.32-.47,1.36-.65,1.3-.79,1.27-1,1.26-1.16,1.2-1.29,1.12-1.48,1.09-1.63,1-1.77.91-1.9.87-2.06.73-2.1.64-2.27.6-2.28.45-2.38.33-2.43.23-2.49.14-2.49v-2.53l-.1-2.49-.18-2.48-.32-2.44-.42-2.43-.55-2.31-.59-2.29-.73-2.14-.83-2-.91-2-1-1.82-1-1.68-1.13-1.53-1.16-1.38-1.24-1.2-1.29-1.07-1.31-.87L141.59,79l-1.38-.47-1.34-.35-1.13-.14L136,86.49a.29.29,0,0,1,0,.09,1,1,0,0,1-.2.39,1.12,1.12,0,0,1-.36.29l-.08,0-2.57,1.07-2.61,1.08-2.56,1.16-5.25,2.44L119.8,94.3l-2.62,1.31L114.62,97l-2.53,1.36-2.52,1.4-2.48,1.4-2.47,1.45-4.77,2.9-4.57,3-2.18,1.49-.84.6.89.62,2.2,1.49,4.58,3,2.36,1.44,2.43,1.45L107.2,120l2.47,1.4,2.53,1.4,5.14,2.71,2.61,1.3,2.57,1.27,2.62,1.26,2.61,1.21,5.23,2.24,2.56,1.07.08,0a1,1,0,0,1,.34.27,1.11,1.11,0,0,1,.22.4A.19.19,0,0,0,136.2,134.63Zm-134-30.89.08,14.72,4.92,0,0-.26v0l-.28-2.54a.13.13,0,0,1,0-.06L6.71,113v0l0-2.58v-.06l.1-2.53v0L7,105.21v0l.16-1.46Zm86.33,5.72H90l1.82-1.3,2.23-1.51,4.61-3,4.82-2.93,2.5-1.46,2.5-1.41,2.54-1.42,2.55-1.36,2.59-1.37,2.64-1.32,2.59-1.27,5.28-2.45,2.59-1.18,0,0L134,85.51l4.16-20.32-47.56,34Zm-2.44,0h.22L88.43,99,60.61,75l-.7,3.38a1.31,1.31,0,0,1-.09.28,1.66,1.66,0,0,1-.22.3h0l1.78,1,.06,0,1.83,1.22.05,0,1.83,1.36s0,0,0,0L67,84.14l0,0,1.83,1.64,0,0,1.78,1.74,0,0,1.78,1.87,1.8,2,0,0,1.69,2.07,1.7,2.17,0,0,1.6,2.25L81,100.37l0,0,1.46,2.35,1.42,2.41,0,0,1.27,2.39ZM61.68,73l28,24.2L138,62.61,110,38.41l-3,2.17a1.08,1.08,0,0,1-.24.18ZM9.45,38.2l.24,54.42.71-1.8v0l.9-2,0-.07,1-1.93,0-.06L13.49,85l0-.06,1.17-1.64.05-.07L16,81.74s0,0,0,0l1.27-1.32.09-.08,1.36-1.12.07-.06,1.41-1a.41.41,0,0,1,.11-.07l1.41-.75a.25.25,0,0,1,.09,0l1.45-.61.13,0,.16,0-.32-.24a.69.69,0,0,1-.13-.11l-.94-.94-.07-.07-.89-1.08L21.14,74l-.8-1.26,0-.06-.75-1.36-.06-.12-.61-1.55,0-.08-.51-1.64s0,0,0-.06l-.42-1.69a.64.64,0,0,1,0-.07l-.32-1.78s0-.06,0-.08l-.18-1.83a.28.28,0,0,1,0-.09l-.05-1.87v0h0l-.09-22.32ZM49.79,75.92l1.08,0H51l1.55.24h.09l1.59.38.11,0,1.64.56.08,0,.18.08-9.94-8.56a1.14,1.14,0,0,1-.11-.11,1,1,0,0,1-.2-.31.76.76,0,0,1-.06-.2,1.08,1.08,0,0,1,0-.31.59.59,0,0,1,0-.14l.91-4.57L21.47,41.2,30.3,60h0l.88,1.72.9,1.67L33.15,65l1.09,1.59,1.2,1.52,1.18,1.41,1.23,1.32L39.11,72l1.26,1,1.25.94,1.25.75,1.13.61,1.1.42.55.14h4.12S49.79,75.91,49.79,75.92ZM48.73,68l9.42,8.12.7-3.38a1.42,1.42,0,0,1,.1-.29l0-.08a2.11,2.11,0,0,1,.19-.23l.13-.1,45.11-32.31L97,33.34ZM27.08,76h.15a1.13,1.13,0,0,1,.32,0H40.61l-.16-.09-.09-.06-1.31-1,0,0L37.7,73.66a.18.18,0,0,1-.07,0l-1.31-1.27s0,0,0,0L35,70.94a.08.08,0,0,0,0,0l-1.22-1.46-1.24-1.57,0-.06-1.13-1.64-1.09-1.66a.59.59,0,0,0,0-.08l-.94-1.74-.6-1.17H19.51l0,.73L19.71,64,20,65.7l.41,1.62.5,1.58.57,1.44.7,1.28.74,1.18.82,1,.84.84.89.65.89.45ZM49,63.32l-.42,2.09L96.1,31.32l.43-2.07ZM20.06,37.11l28,24.2L96.41,26.67l-.29-.24-.06-.06L68.35,2.47Zm-.58,22.24h8.14L19.41,41.92Zm91.28-23.13,9,7.78-.08-19.62-.09-2.1-.23-2-.4-2-.54-1.94-.68-1.88-.85-1.8L116,10.9l-1.08-1.57-1.16-1.47-1.29-1.29-1.32-1.15-1.46-1-1.5-.83L106.62,3,105,2.52l-1.56-.26-1.65-.09H71.34l24.38,21v0a.34.34,0,0,1,0-.1L95.92,22a.61.61,0,0,1,0-.18l.37-1a1.42,1.42,0,0,1,.08-.18l.52-.89a.71.71,0,0,1,.1-.14l.66-.8a.74.74,0,0,1,.12-.13l.75-.66.17-.11.79-.47a.67.67,0,0,1,.23-.1l.89-.29.21,0,.89-.09H102l.89.09.22,0,.89.29.2.08.84.47a1.12,1.12,0,0,1,.22.16l.7.65.1.11.65.8a.76.76,0,0,1,.11.14l.51.89a.91.91,0,0,1,.07.14l.42,1,.06.18.23,1.08a1.1,1.1,0,0,1,0,.18l0,1.12v.12l0,1.06a1.1,1.1,0,0,1,0,.18l-.23,1.08c0,.05,0,.1,0,.14l-.37,1a1.3,1.3,0,0,1-.08.17l-.52.89a1.3,1.3,0,0,1-.1.15l-.66.79-.09.11-.71.66a.8.8,0,0,1-.21.15l-.85.47a1.21,1.21,0,0,1-.2.09l-.89.28-.21,0-.89.1h-.23l-.89-.1-.21,0-.9-.28-.22-.1-.8-.47-.16-.12-.15-.13-.2.92,8,6.86,3.14-2.25a1.09,1.09,0,0,1,.23-.14,1.24,1.24,0,0,1,.46-.08,1.15,1.15,0,0,1,.69.28ZM58.87,2.31,11.79,36,18,35.94,65,2.22Zm42.38,27.31.66.07.67-.07.69-.21.63-.35.55-.52.56-.68.42-.73.32-.87.2-.92,0-.94,0-1-.2-.9-.36-.87L105,20.9l-.56-.68-.55-.51-.63-.35-.68-.22-.67-.07-.67.07-.67.21-.6.36-.61.53-.55.66-.42.73L98,22.5l.11.69a.28.28,0,0,1,0,.09l.1,1.11v.22l-.07.74.66.56A.57.57,0,0,1,99,26a1,1,0,0,1,.21.32,1.05,1.05,0,0,1,0,.19.85.85,0,0,1,0,.32.59.59,0,0,1,0,.14L99,28.1l.36.41.62.55.61.35ZM69,212.74h0l-1.08-.05h-.14l-1.08-.19-.17,0-.94-.33-.15-.07-.89-.46-.15-.1-.75-.56-.17-.16-.61-.7a.86.86,0,0,1-.13-.2l-.43-.8a1.43,1.43,0,0,1-.08-.22L62,208a2,2,0,0,1,0-.24l0-.89a.91.91,0,0,1,0-.23l.14-.89a.9.9,0,0,1,.06-.22l.33-.85a1.3,1.3,0,0,1,.08-.17l.52-.84a.83.83,0,0,1,.13-.18l.71-.75.1-.1.8-.65.13-.1.94-.56.15-.07,1-.43.13,0,1.08-.28a.63.63,0,0,1,.19,0l1.12-.1H70.9l1.08.19.16,0,1,.33.19.08.84.47a.91.91,0,0,1,.16.11l.75.61a.8.8,0,0,1,.13.13l.61.7.13.18.42.75a.82.82,0,0,1,.1.24l.24.85a.85.85,0,0,1,0,.23l0,.89a.89.89,0,0,1,0,.23l-.14.89a1,1,0,0,1-.06.23l-.33.84a.56.56,0,0,1-.09.17l-.51.85a1.15,1.15,0,0,1-.14.17l-.7.75-.1.1-.8.66-.13.09-.94.56-.15.08-1,.42-.14,0-1.08.28-.13,0-1.13.14Zm-1-2.21.92,0,1-.12.94-.25.89-.36.8-.48.68-.56.58-.62.41-.67.25-.64.11-.67,0-.65-.17-.61-.3-.54-.48-.55-.6-.49-.67-.37-.81-.27-.91-.16h-.94l-1,.08-.92.24-.89.37-.79.48-.68.56-.58.61-.41.67-.25.65-.11.66,0,.66.17.62.31.58.45.52.59.44.74.39.78.28Zm-31.69-21H35.29l-.19,0L34,189.31l-.17,0-.94-.33-.14-.06-.89-.47-.18-.12-.75-.61a.86.86,0,0,1-.14-.13l-.61-.71a1.09,1.09,0,0,1-.13-.17l-.42-.76a.87.87,0,0,1-.1-.24l-.23-.84a1,1,0,0,1,0-.24l-.05-.89a1.62,1.62,0,0,1,0-.22l.14-.89a1.29,1.29,0,0,1,.06-.21l.33-.89a.88.88,0,0,1,.1-.22l.52-.79a.61.61,0,0,1,.12-.16l.7-.75.1-.09.8-.66a.51.51,0,0,1,.13-.09l.94-.57.15-.07,1-.42.14,0,1.08-.28.14,0,1.12-.14H37l1.08.05.13,0,1.08.18.16,0,1,.33.18.08.84.47.13.08.75.57a1.22,1.22,0,0,1,.17.15l.61.71a1.43,1.43,0,0,1,.14.2l.42.8a.85.85,0,0,1,.09.22l.23.84a1,1,0,0,1,0,.23l0,.9a.82.82,0,0,1,0,.22l-.14.89a.86.86,0,0,1-.06.23l-.33.84a1.42,1.42,0,0,1-.08.18l-.52.84-.13.18-.71.75-.1.09-.79.66a1.1,1.1,0,0,1-.14.09l-.93.57-.19.09L39,189l-.1,0-1.08.28-.14,0-1.13.14Zm-1-2.17h.92l1-.13,1-.25.89-.32.78-.47.68-.56.58-.62.4-.66.26-.65.1-.66,0-.66-.18-.62-.3-.58-.46-.53-.6-.44-.69-.39-.81-.27-.93-.16-.92,0-1,.12-.94.25-.89.36-.8.48-.68.56-.59.63-.4.61-.25.68-.1.67,0,.66.17.6.3.54.48.55.59.48.73.39.78.27Zm86.8-21.53h0l-1.13,0-.15,0-1-.19-.15,0-1-.32-.17-.07-.89-.47a.71.71,0,0,1-.14-.1l-.75-.56a.65.65,0,0,1-.17-.16l-.61-.7a.9.9,0,0,1-.14-.2l-.43-.8a1.43,1.43,0,0,1-.08-.22l-.24-.84a1,1,0,0,1,0-.23l0-.85a.91.91,0,0,1,0-.23l.14-.89a1,1,0,0,1,.07-.25l.38-.89a1,1,0,0,1,.07-.15l.52-.84.11-.15.65-.75a.71.71,0,0,1,.13-.12l.8-.66.17-.12.94-.51.11,0,1-.43.14,0,1.08-.28a.32.32,0,0,1,.14,0l1.12-.14h.18l1.08.05h.1l1.07.14.21,0,1,.33.17.07.89.47.2.14.71.61.11.11.61.7a.92.92,0,0,1,.13.21l.43.79a2,2,0,0,1,.08.22l.24.85a1.57,1.57,0,0,1,0,.23l0,.84a.87.87,0,0,1,0,.23l-.14.89a1.6,1.6,0,0,1,0,.21l-.33.89a1.51,1.51,0,0,1-.11.22l-.51.79a.64.64,0,0,1-.1.13l-.66.75a.68.68,0,0,1-.12.12l-.84.7a.88.88,0,0,1-.17.12l-.94.52-.12.05-1,.42-.13.05-1.08.28-.14,0-1.08.15Zm-1-2.21.95,0,.92-.12,1-.25.9-.37.8-.43.7-.59.54-.62.41-.63.25-.68.11-.67,0-.61-.17-.62-.31-.59-.48-.55-.55-.48-.7-.36-.8-.27-.93-.12-.94,0-1,.12-1,.24-.9.37-.8.44-.65.54L118,158l-.42.7-.29.69-.11.65,0,.61.17.62.31.58.45.52.59.44.74.39.82.28Zm-31.65-21H88.4l-.19,0-1-.19a.57.57,0,0,1-.15,0L86,142l-.16-.07-.89-.47a.57.57,0,0,1-.18-.12l-.75-.61a.86.86,0,0,1-.14-.13l-.61-.7-.13-.18-.42-.75a1.86,1.86,0,0,1-.1-.25l-.23-.84a.93.93,0,0,1,0-.23l0-.9a.82.82,0,0,1,0-.22l.14-.89a.9.9,0,0,1,.08-.28l.37-.84,0-.09.47-.84a1.77,1.77,0,0,1,.16-.22l.7-.75.11-.09.79-.66.14-.09.93-.57.15-.07,1-.42.14-.05,1.08-.28.18,0L90,130.3h1.17l.19,0,1.08.19.15,0,1,.32.16.07.89.47a1.53,1.53,0,0,1,.21.14l.7.61.09.08.61.66a1.19,1.19,0,0,1,.16.23l.42.8a.85.85,0,0,1,.09.22l.23.84a1,1,0,0,1,0,.24l0,.89a1.62,1.62,0,0,1,0,.22l-.14.9a1.87,1.87,0,0,1-.07.22l-.32.84-.09.18-.52.84-.1.15-.66.75-.15.14-.85.66-.1.07-.94.57-.15.07-1,.42-.14.05-1.08.28a.57.57,0,0,1-.18,0l-1.08.1Zm-1-2.17h1l.94-.09.92-.24.89-.36.81-.49.71-.55.53-.6.42-.68.25-.65.1-.66,0-.66-.17-.62-.3-.56-.48-.51-.56-.49-.7-.37-.83-.28-.9-.15h-.94l-1,.08-.92.24-.89.36-.8.48-.68.56-.56.6-.38.69-.3.67-.1.63,0,.66.17.61.31.54.47.54.59.49.72.37.83.28ZM27.64,128.76h-.05l-1,0a1,1,0,0,1-.24,0l-1-.28a.52.52,0,0,1-.16-.06l-1-.47a.8.8,0,0,1-.16-.08l-1-.66-.1-.07-.94-.8a.94.94,0,0,1-.1-.1l-.9-1-.09-.11-.8-1.18,0-.05-.75-1.27a.31.31,0,0,1-.05-.1l-.66-1.4,0-.08-.56-1.5a.32.32,0,0,1,0-.09l-.47-1.64s0,0,0-.06L17.06,116a.13.13,0,0,1,0-.06l-.29-1.74a.28.28,0,0,0,0-.09l-.14-1.78v-.06l-.05-1.78v-.08l.1-1.79v0l.19-1.79a.13.13,0,0,1,0-.06l.28-1.73a.3.3,0,0,1,0-.1l.42-1.64a.64.64,0,0,0,0-.07l.52-1.59,0-.09.61-1.45s0,0,0-.05l.66-1.36a.54.54,0,0,1,.07-.13l.8-1.22.05-.07.84-1.08.07-.08.89-.94.11-.1.94-.75.16-.1,1-.57.11,0,1-.42a.79.79,0,0,1,.22-.06l1-.19.2,0h1.07l.2,0,1,.19a.7.7,0,0,1,.14,0l1,.33a1,1,0,0,1,.21.09l1,.56.12.08,1,.75.11.1.89.89.07.08.89,1.08.09.12.75,1.22,0,0,.7,1.32a.41.41,0,0,1,.05.09l.61,1.46,0,.08.52,1.6a.14.14,0,0,0,0,.06l.42,1.64s0,0,0,.07l.33,1.74a.22.22,0,0,1,0,.08l.19,1.74s0,0,0,.06l.09,1.78v2l-.14,1.79s0,0,0,.06l-.23,1.73s0,.06,0,.09l-.37,1.69-.44,1.68,0,.11-.56,1.5,0,.07-.66,1.45a.54.54,0,0,1-.05.11l-.75,1.27a.1.1,0,0,0,0,0l-.8,1.17a.62.62,0,0,1-.09.12l-.89,1-.06.06-.89.84-.15.12-1,.65-.12.07-1,.52-.2.08-1,.28-.19,0-1.08.09Zm-.86-2.21.84,0,.91-.08.83-.22.88-.44.85-.57.79-.75.82-.9.73-1.08.71-1.19.61-1.37.53-1.41.41-1.58.36-1.61.22-1.66.14-1.71v-1.76l-.09-1.73-.18-1.66-.32-1.66-.4-1.58-.49-1.52-.58-1.36-.66-1.24L33,98.37l-.81-1-.81-.8-.87-.67-.82-.47-.86-.27L28,95h-.89l-.82.15-.87.36-.9.49-.8.64-.81.85-.78,1-.74,1.12-.61,1.28-.58,1.38-.49,1.52-.4,1.56L19,107l-.18,1.73-.09,1.71,0,1.71.14,1.71.27,1.66.36,1.63.45,1.57.53,1.42.61,1.32.71,1.19.74,1.08.79.88.84.71.86.57.87.4ZM89.9,90.71h-.13l-1.13-.14-.14,0-1.08-.28-.09,0-1-.38-.18-.08-.94-.57L85,89.1l-.8-.66-.1-.09-.71-.75-.12-.16-.51-.79a.93.93,0,0,1-.1-.2l-.33-.84a1.21,1.21,0,0,1-.05-.18l-.19-.89a.86.86,0,0,1,0-.28l0-.89a.85.85,0,0,1,0-.23l.24-.85a1.22,1.22,0,0,1,.1-.24L83,81.3l.13-.18.61-.7a.57.57,0,0,1,.11-.11l.7-.61a.9.9,0,0,1,.2-.14l.9-.47.16-.07,1-.33.15,0,1-.18.14,0,1.13,0h.18l1.13.14.14,0,1.08.28.09,0,1,.37.19.09.94.57a.38.38,0,0,1,.13.09l.8.66.1.09.71.75.12.16.51.79a.75.75,0,0,1,.1.2l.33.84a1.54,1.54,0,0,1,0,.17l.19.89a1,1,0,0,1,0,.29l-.05.89A.91.91,0,0,1,97,86l-.24.85a1.22,1.22,0,0,1-.1.24l-.42.75-.13.18-.61.7a.57.57,0,0,1-.11.11l-.7.61a1.1,1.1,0,0,1-.21.14l-.89.47-.16.07-1,.33-.15,0-1,.18-.15,0-1.12,0Zm2.16-1.32Zm-3.08-1,1,.12,1,0,.88-.16.83-.27.7-.37.55-.48.49-.56.3-.54.17-.61,0-.63-.14-.66-.25-.66-.41-.62-.59-.63-.68-.56L92,81.27,91.13,81l-1-.25-1-.12-1,0-.88.16-.83.27-.7.37-.55.48-.49.56-.3.54-.17.6,0,.63.14.67.25.66.41.62.58.63.69.56.78.47.88.32Zm33.39-21h-.09l-1.13-.09-.18,0L119.89,67l-.14,0-1-.42-.11-.06-.94-.51a.88.88,0,0,1-.17-.12l-.79-.65-.11-.1-.7-.75a.7.7,0,0,1-.13-.17l-.52-.85-.09-.17-.32-.85a.48.48,0,0,1,0-.17l-.19-.89a.88.88,0,0,1,0-.28l0-.85a2.23,2.23,0,0,1,0-.23l.24-.84a1.43,1.43,0,0,1,.08-.22l.42-.8a1.77,1.77,0,0,1,.12-.17l.56-.7a.9.9,0,0,1,.2-.19l.75-.56a.71.71,0,0,1,.14-.1l.89-.47.17-.07,1-.32.15,0,1-.19.15,0,1.13,0h.14l1.08.09.18,0,1.08.28.13,0,1,.42.11.06.94.51.14.1.84.66a.69.69,0,0,1,.13.11l.7.75a.86.86,0,0,1,.14.18l.51.84a.7.7,0,0,1,.09.17l.33.85a.9.9,0,0,1,.06.22l.14.89a.91.91,0,0,1,0,.23l-.05.85a.88.88,0,0,1,0,.17l-.19.85a.88.88,0,0,1-.1.27l-.42.8a1.43,1.43,0,0,1-.14.2l-.61.71a1.22,1.22,0,0,1-.17.15l-.75.57-.12.08-.85.47-.18.08-1,.33-.16,0-1.07.18-.14,0-1.08,0Zm2.16-1.32Zm-3.1-.94,1,.08.94,0,.93-.16.81-.27.7-.39.59-.44.46-.53.29-.56.14-.61,0-.64-.1-.66-.25-.65-.41-.66L126,59l-.71-.55-.8-.45-.91-.37-.92-.24-.92-.08-1,0-.88.16-.83.28-.74.39-.57.42-.41.52-.32.6-.17.62,0,.58.14.67.26.67.41.67.58.62.67.54.79.44.91.37ZM37.5,44.49H36.33L35.2,44.4l-.18,0-1.08-.28-.14,0-1-.43-.11,0-.94-.51-.15-.1-.84-.66a.67.67,0,0,1-.15-.14l-.66-.75-.09-.12-.52-.8-.09-.17-.37-.89a.72.72,0,0,1-.07-.25l-.15-.84a1.93,1.93,0,0,1,0-.24l.05-.89a.93.93,0,0,1,0-.23l.23-.84a.85.85,0,0,1,.09-.22l.42-.8a.9.9,0,0,1,.14-.2l.56-.66.14-.13.75-.61a.91.91,0,0,1,.16-.11l.84-.47.19-.08,1-.33.16,0,1.08-.18.14,0,1.07-.05h.19l1.12.14.1,0,1.08.23.18.06,1,.42.15.08.94.56.07,0,.85.61a.93.93,0,0,1,.18.16l.66.76a1.71,1.71,0,0,1,.11.14l.51.85a.75.75,0,0,1,.07.12l.37.85a.92.92,0,0,1,.08.27l.14.89a.9.9,0,0,1,0,.23l0,.85a1,1,0,0,1,0,.23l-.23.84a.85.85,0,0,1-.09.22l-.42.8a1.63,1.63,0,0,1-.11.17l-.57.7a.86.86,0,0,1-.19.19l-.75.56-.15.1-.89.47-.12,0-1,.37a.6.6,0,0,1-.19.06l-1,.19Zm1-1.27Zm-2.07-.9h.94l.83-.15.83-.32.76-.4.57-.43.42-.51.31-.6.18-.62,0-.61-.1-.64-.29-.65-.43-.7L40,36.1l-.71-.51-.83-.5-.87-.35-.94-.21-1-.12-.92,0-.93.16-.81.27-.67.37-.61.49-.42.49-.31.59-.17.62,0,.65.1.6.29.69.42.65.53.61.7.54.81.45.9.37.92.24Zm32.38-21H68.7l-1.08-.14-.09,0-1.08-.23a.64.64,0,0,1-.18-.06l-1-.42-.14-.07-.94-.57L64,19.68,63.2,19l-.1-.09-.71-.7a1.56,1.56,0,0,1-.16-.2l-.51-.85a.56.56,0,0,1-.09-.17l-.33-.84a1,1,0,0,1-.06-.23l-.14-.89a1.77,1.77,0,0,1,0-.23l0-.89a1.23,1.23,0,0,1,0-.19l.19-.8a1.39,1.39,0,0,1,.1-.26l.42-.79a1.1,1.1,0,0,1,.14-.21l.61-.7a.86.86,0,0,1,.14-.13l.75-.61.15-.11.85-.47.18-.08,1-.33.15,0L66.91,9h1.36l1.13.1.18,0,1.08.28.14,0,1,.43.11,0,.94.52.17.11.79.66.11.09.7.75.12.16.51.79a.91.91,0,0,1,.11.22l.33.89a.74.74,0,0,1,0,.14l.19.84a1,1,0,0,1,0,.3l0,.89a1.57,1.57,0,0,1,0,.23l-.24.85a.82.82,0,0,1-.1.24l-.42.75a.71.71,0,0,1-.1.14l-.56.71a1.21,1.21,0,0,1-.16.16l-.75.61a.94.94,0,0,1-.18.12l-.89.47-.17.07-1,.33-.15,0-1,.18-.15,0-1.13.05ZM71,20h0Zm-3-1,.94.12,1,0,.88-.16.83-.27.72-.38.58-.47.43-.54.32-.56.16-.6,0-.63-.14-.63-.27-.71L73,13.49l-.59-.63-.67-.55L71,11.87,70,11.5l-.92-.24-1-.08h-.94l-.9.16-.81.27L64.8,12l-.6.49-.47.54-.3.57-.13.56,0,.68.1.67.25.64.4.65.56.57.74.57.81.49.87.36Z"/></g></g></svg>