<svg xmlns="http://www.w3.org/2000/svg" viewBox="0 0 392.33 78.79"><defs><style>.cls-1{fill:gray;}.cls-2{fill:#fff;}</style></defs><title>Logo-H_w_1</title><g id="Layer_2" data-name="Layer 2"><g id="Layer_6" data-name="Layer 6"><polyline class="cls-1" points="104.43 55.51 90.55 0.05 80.32 0.05 66.45 55.52 52.58 0.05 42.35 0.05 28.47 55.53 23.1 34.02 0 34.02 0 44.57 14.86 44.57 23.36 78.55 33.59 78.55 47.47 23.07 61.33 78.55 71.56 78.55 85.44 23.07 99.31 78.55 109.55 78.55 118.03 44.57 128.79 44.57 137.28 78.55 147.52 78.55 156.01 44.57 170.88 44.57 170.88 34.02 147.78 34.02 142.4 55.53 128.53 0.05 118.29 0.05"/><path class="cls-2" d="M190.69,33.79V0h9.8l7.39,30.32h.77L216,0h9.8V33.79h-5.07V3.67H220l-7.33,30.12h-8.79L196.53,3.67h-.77V33.79Z"/><path class="cls-2" d="M245.53,34.47q-6,0-9.44-3.21t-3.45-9V0h5.26V22.35a7.32,7.32,0,0,0,2,5.5,9.2,9.2,0,0,0,11.3,0,7.32,7.32,0,0,0,2-5.5V0h5.21V22.21q0,5.84-3.45,9.05T245.53,34.47Z"/><path class="cls-2" d="M263.92,33.79V29.16h4.59V4.63h-4.59V0h17.14a12.67,12.67,0,0,1,5.31,1,8.24,8.24,0,0,1,3.55,3A7.94,7.94,0,0,1,291.2,8.5V9a7.49,7.49,0,0,1-.87,3.81,7,7,0,0,1-2.12,2.34,7.85,7.85,0,0,1-2.32,1.14V17a8.39,8.39,0,0,1,2.39,1.11,6.93,6.93,0,0,1,2.17,2.34,7.79,7.79,0,0,1,.89,3.94v.48a8.1,8.1,0,0,1-4.92,7.82,12.48,12.48,0,0,1-5.26,1.06Zm9.8-19.4h6.81a6,6,0,0,0,4-1.24A4.09,4.09,0,0,0,286,9.8V9.32A4.15,4.15,0,0,0,284.51,6a6,6,0,0,0-4-1.23h-6.81Zm0,14.67h6.81a6.22,6.22,0,0,0,4.1-1.25,4.3,4.3,0,0,0,1.5-3.48V23.9a4.34,4.34,0,0,0-1.47-3.48,6.18,6.18,0,0,0-4.13-1.25h-6.81Z"/><path class="cls-2" d="M294.48,33.79,304.09,0h9.17l9.61,33.79h-5.36l-2.22-8H302.06l-2.22,8ZM303.36,21H314L309.06,3.23h-.77Z"/><path class="cls-2" d="M327.45,33.79V0h14.19a12.84,12.84,0,0,1,5.51,1.11,9.11,9.11,0,0,1,3.72,3.11A8.42,8.42,0,0,1,352.22,9v.53a8,8,0,0,1-1.52,5.09,8.18,8.18,0,0,1-3.7,2.68v.77A4.25,4.25,0,0,1,350,19.36a4.48,4.48,0,0,1,1.11,3.23v11.2h-5.22V23.32a3,3,0,0,0-.7-2.08,2.81,2.81,0,0,0-2.19-.77H332.67V33.79Zm5.22-18h8.4a6.26,6.26,0,0,0,4.34-1.4A5,5,0,0,0,347,10.43V10a5,5,0,0,0-1.53-3.88,6.14,6.14,0,0,0-4.36-1.43h-8.4Z"/><path class="cls-2" d="M358,33.79V0h5.21V33.79Z"/><path class="cls-2" d="M369,33.79V27L386.78,5.36V4.68H369.55V0h22.59V6.76L374.37,28.43v.68h18v4.68Z"/><path class="cls-2" d="M188.23,78.79,197.84,45H207l9.61,33.79h-5.36l-2.22-8H195.81l-2.22,8ZM197.11,66h10.62l-4.92-17.77H202Z"/><path class="cls-2" d="M221.2,78.79V45h5.21V59.48h14.2V45h5.21V78.79h-5.21V64.21h-14.2V78.79Z"/><path class="cls-2" d="M252.87,78.79V45h9.8l7.38,30.32h.78L278.21,45H288V78.79h-5.07V48.67h-.77l-7.34,30.12h-8.78l-7.34-30.12h-.77V78.79Z"/><path class="cls-2" d="M295.06,78.79V45h21.29v4.73H300.27v9.7H315v4.74H300.27v9.89h16.32v4.73Z"/><path class="cls-2" d="M320.79,78.79V74.16h4.59V49.63h-4.59V45h13.52q6.7,0,10.33,3.43t3.62,10.33v6.32q0,6.9-3.62,10.31t-10.33,3.4Zm9.8-4.73h3.76q8.7,0,8.69-8.83V58.57q0-8.79-8.69-8.79h-3.76Z"/></g></g></svg>