<svg xmlns="http://www.w3.org/2000/svg" viewBox="0 0 235.79 74.91"><defs><style>.cls-1{fill:gray;}</style></defs><title>MA Logo B</title><g id="Layer_2" data-name="Layer 2"><g id="Layer_6" data-name="Layer 6"><polyline class="cls-1" points="210.21 64.01 204.87 42.66 200.93 42.66 195.59 64.02 190.26 42.66 186.32 42.66 180.98 64.02 178.91 55.74 170.02 55.74 170.02 59.8 175.74 59.8 179.01 72.88 182.95 72.88 188.29 51.53 193.62 72.88 197.56 72.88 202.9 51.52 208.24 72.88 212.18 72.88 215.45 59.8 219.59 59.8 222.86 72.88 226.8 72.88 230.07 59.8 235.79 59.8 235.79 55.74 226.9 55.74 224.83 64.02 219.49 42.66 215.55 42.66"/><path d="M2.46,33.79V0h9.8l7.39,30.32h.77L27.81,0h9.8V33.79H32.54V3.67h-.78L24.43,33.79H15.64L8.3,3.67H7.53V33.79Z"/><path d="M57.3,34.47q-6,0-9.44-3.21t-3.45-9V0h5.26V22.35a7.32,7.32,0,0,0,2,5.5,7.75,7.75,0,0,0,5.65,1.94A7.75,7.75,0,0,0,63,27.85a7.32,7.32,0,0,0,2-5.5V0h5.21V22.21q0,5.84-3.45,9.05T57.3,34.47Z"/><path d="M75.69,33.79V29.16h4.59V4.63H75.69V0H92.83a12.67,12.67,0,0,1,5.31,1,8.3,8.3,0,0,1,3.55,3A7.94,7.94,0,0,1,103,8.5V9a7.49,7.49,0,0,1-.87,3.81A6.92,6.92,0,0,1,100,15.13a7.69,7.69,0,0,1-2.31,1.14V17a8.39,8.39,0,0,1,2.39,1.11,6.93,6.93,0,0,1,2.17,2.34,7.79,7.79,0,0,1,.89,3.94v.48a8.1,8.1,0,0,1-4.92,7.82,12.48,12.48,0,0,1-5.26,1.06Zm9.8-19.4H92.3a6,6,0,0,0,4-1.24A4.11,4.11,0,0,0,97.75,9.8V9.32A4.15,4.15,0,0,0,96.28,6a6,6,0,0,0-4-1.23H85.49Zm0,14.67H92.3a6.22,6.22,0,0,0,4.1-1.25,4.3,4.3,0,0,0,1.5-3.48V23.9a4.34,4.34,0,0,0-1.47-3.48,6.18,6.18,0,0,0-4.13-1.25H85.49Z"/><path d="M106.25,33.79,115.86,0H125l9.61,33.79h-5.36l-2.22-8H113.83l-2.22,8ZM115.13,21h10.62L120.83,3.23h-.77Z"/><path d="M139.22,33.79V0h14.19a12.84,12.84,0,0,1,5.51,1.11,9,9,0,0,1,3.71,3.11A8.35,8.35,0,0,1,164,9v.53a8,8,0,0,1-1.52,5.09,8.18,8.18,0,0,1-3.7,2.68v.77a4.25,4.25,0,0,1,2.95,1.26,4.48,4.48,0,0,1,1.11,3.23v11.2h-5.22V23.32a3,3,0,0,0-.7-2.08,2.83,2.83,0,0,0-2.19-.77H144.43V33.79Zm5.21-18h8.4a6.27,6.27,0,0,0,4.35-1.4,5,5,0,0,0,1.54-3.91V10a5,5,0,0,0-1.52-3.88,6.15,6.15,0,0,0-4.37-1.43h-8.4Z"/><path d="M169.73,33.79V0h5.21V33.79Z"/><path d="M180.79,33.79V27L198.55,5.36V4.68H181.32V0h22.59V6.76L186.14,28.43v.68h18v4.68Z"/><path d="M0,74.91,9.61,41.12h9.17l9.6,33.79H23l-2.22-8H7.58l-2.22,8ZM8.88,62.12H19.5L14.58,44.36h-.77Z"/><path d="M33,74.91V41.12h5.21V55.6h14.2V41.12h5.21V74.91H52.38V60.33H38.18V74.91Z"/><path d="M64.64,74.91V41.12h9.8l7.38,30.32h.78L90,41.12h9.8V74.91H94.71V44.79h-.77L86.6,74.91H77.82L70.48,44.79h-.77V74.91Z"/><path d="M106.83,74.91V41.12h21.29v4.73H112v9.7h14.73v4.74H112v9.89h16.32v4.73Z"/><path d="M132.56,74.91V70.28h4.58V45.75h-4.58V41.12h13.52q6.71,0,10.33,3.43T160,54.88V61.2q0,6.92-3.62,10.31t-10.33,3.4Zm9.8-4.73h3.76q8.7,0,8.69-8.83V54.69q0-8.79-8.69-8.79h-3.76Z"/></g></g></svg>