<svg xmlns="http://www.w3.org/2000/svg" viewBox="0 0 175.93 167.16"><defs><style>.cls-1{fill:gray;}.cls-2{font-size:40.95px;fill:#fff;font-family:SpaceGrotesk-Medium, Space Grotesk;}</style></defs><title>Logo-V_w</title><g id="Layer_2" data-name="Layer 2"><g id="Layer_6" data-name="Layer 6"><polyline class="cls-1" points="106.95 55.47 93.08 0 82.85 0 68.98 55.47 55.11 0 44.88 0 31 55.48 25.63 33.98 2.53 33.98 2.53 44.52 17.39 44.52 25.89 78.5 36.12 78.5 49.99 23.02 63.86 78.5 74.09 78.5 87.97 23.02 101.84 78.5 112.08 78.5 120.56 44.52 131.32 44.52 139.81 78.5 150.05 78.5 158.54 44.52 173.4 44.52 173.4 33.98 150.31 33.98 144.93 55.48 131.05 0 120.82 0"/><text class="cls-2" transform="translate(0 117.52)">MUBARIZ<tspan x="18.63" y="38.17">AHMED</tspan></text></g></g></svg>